<svg width="26" height="23" viewBox="0 0 26 23" fill="none" xmlns="http://www.w3.org/2000/svg">
<path d="M22.3628 3.70135C21.8236 3.16197 21.1835 2.7341 20.479 2.44218C19.7745 2.15025 19.0193 2 18.2567 2C17.4941 2 16.7389 2.15025 16.0344 2.44218C15.3299 2.7341 14.6898 3.16197 14.1507 3.70135L13.0318 4.82022L11.9129 3.70135C10.8239 2.61236 9.34691 2.00056 7.80684 2.00056C6.26677 2.00056 4.78978 2.61236 3.70079 3.70135C2.61179 4.79034 2 6.26734 2 7.80741C2 9.34748 2.61179 10.8245 3.70079 11.9135L4.81966 13.0323L13.0318 21.2445L21.2439 13.0323L22.3628 11.9135C22.9021 11.3743 23.33 10.7342 23.6219 10.0297C23.9139 9.32517 24.0641 8.57002 24.0641 7.80741C24.0641 7.04479 23.9139 6.28965 23.6219 5.58512C23.33 4.88059 22.9021 4.24047 22.3628 3.70135V3.70135Z" stroke="#353940" stroke-width="3" stroke-linecap="round" stroke-linejoin="round"/>
</svg>
