<svg width="492" height="196" viewBox="0 0 492 196" fill="none" xmlns="http://www.w3.org/2000/svg">
<path d="M157.84 76.72C163.013 76.72 167.12 78.4533 170.16 81.92C173.2 85.3333 174.72 89.9733 174.72 95.84V122H159.04V97.92C159.04 95.36 158.373 93.36 157.04 91.92C155.707 90.4266 153.92 89.68 151.68 89.68C149.333 89.68 147.493 90.4266 146.16 91.92C144.827 93.36 144.16 95.36 144.16 97.92V122H128.48V77.12H144.16V83.52C145.547 81.4933 147.413 79.8666 149.76 78.64C152.107 77.36 154.8 76.72 157.84 76.72Z" fill="url(#paint0_linear_1103_974)"/>
<path d="M229.244 77.12V122H213.484V115.6C212.15 117.627 210.31 119.28 207.964 120.56C205.617 121.787 202.924 122.4 199.884 122.4C194.657 122.4 190.524 120.693 187.484 117.28C184.497 113.813 183.004 109.12 183.004 103.2V77.12H198.604V101.2C198.604 103.76 199.27 105.787 200.604 107.28C201.99 108.72 203.804 109.44 206.044 109.44C208.337 109.44 210.15 108.72 211.484 107.28C212.817 105.787 213.484 103.76 213.484 101.2V77.12H229.244Z" fill="url(#paint1_linear_1103_974)"/>
<path d="M253.847 83.36C255.074 81.2266 256.807 79.5733 259.047 78.4C261.287 77.1733 263.927 76.56 266.967 76.56C270.541 76.56 273.767 77.4933 276.647 79.36C279.581 81.2266 281.874 83.8933 283.527 87.36C285.234 90.8266 286.087 94.88 286.087 99.52C286.087 104.16 285.234 108.24 283.527 111.76C281.874 115.227 279.581 117.893 276.647 119.76C273.767 121.627 270.541 122.56 266.967 122.56C263.927 122.56 261.287 121.973 259.047 120.8C256.807 119.573 255.074 117.893 253.847 115.76V122H238.167V62.8H253.847V83.36ZM270.167 99.52C270.167 96.5866 269.367 94.32 267.767 92.72C266.221 91.0666 264.301 90.24 262.008 90.24C259.714 90.24 257.767 91.0666 256.167 92.72C254.621 94.3733 253.847 96.64 253.847 99.52C253.847 102.453 254.621 104.747 256.167 106.4C257.767 108.053 259.714 108.88 262.008 108.88C264.301 108.88 266.221 108.053 267.767 106.4C269.367 104.693 270.167 102.4 270.167 99.52Z" fill="url(#paint2_linear_1103_974)"/>
<path d="M313.422 122.56C308.942 122.56 304.916 121.627 301.342 119.76C297.822 117.893 295.049 115.227 293.022 111.76C290.996 108.293 289.982 104.213 289.982 99.52C289.982 94.88 290.996 90.8266 293.022 87.36C295.102 83.8933 297.902 81.2266 301.422 79.36C304.996 77.4933 309.023 76.56 313.503 76.56C317.983 76.56 321.983 77.4933 325.503 79.36C329.076 81.2266 331.876 83.8933 333.902 87.36C335.982 90.8266 337.022 94.88 337.022 99.52C337.022 104.16 335.982 108.24 333.902 111.76C331.876 115.227 329.076 117.893 325.503 119.76C321.929 121.627 317.902 122.56 313.422 122.56ZM313.422 108.96C315.609 108.96 317.422 108.16 318.862 106.56C320.356 104.907 321.103 102.56 321.103 99.52C321.103 96.48 320.356 94.16 318.862 92.56C317.422 90.96 315.636 90.16 313.503 90.16C311.369 90.16 309.582 90.96 308.142 92.56C306.702 94.16 305.982 96.48 305.982 99.52C305.982 102.613 306.676 104.96 308.062 106.56C309.449 108.16 311.236 108.96 313.422 108.96Z" fill="url(#paint3_linear_1103_974)"/>
<path d="M364.282 122.56C359.802 122.56 355.775 121.627 352.202 119.76C348.682 117.893 345.909 115.227 343.882 111.76C341.855 108.293 340.842 104.213 340.842 99.52C340.842 94.88 341.855 90.8266 343.882 87.36C345.962 83.8933 348.762 81.2266 352.282 79.36C355.855 77.4933 359.882 76.56 364.362 76.56C368.842 76.56 372.842 77.4933 376.362 79.36C379.935 81.2266 382.735 83.8933 384.762 87.36C386.842 90.8266 387.882 94.88 387.882 99.52C387.882 104.16 386.842 108.24 384.762 111.76C382.735 115.227 379.935 117.893 376.362 119.76C372.789 121.627 368.762 122.56 364.282 122.56ZM364.282 108.96C366.469 108.96 368.282 108.16 369.722 106.56C371.215 104.907 371.962 102.56 371.962 99.52C371.962 96.48 371.215 94.16 369.722 92.56C368.282 90.96 366.495 90.16 364.362 90.16C362.229 90.16 360.442 90.96 359.002 92.56C357.562 94.16 356.842 96.48 356.842 99.52C356.842 102.613 357.535 104.96 358.922 106.56C360.309 108.16 362.095 108.96 364.282 108.96Z" fill="url(#paint4_linear_1103_974)"/>
<path d="M422.341 122L409.941 103.6V122H394.261V62.8H409.941V94.72L422.341 77.12H441.141L423.461 99.68L441.461 122H422.341Z" fill="url(#paint5_linear_1103_974)"/>
<path d="M453.658 122.64C450.885 122.64 448.645 121.893 446.938 120.4C445.285 118.853 444.458 116.907 444.458 114.56C444.458 112.213 445.285 110.267 446.938 108.72C448.645 107.173 450.885 106.4 453.658 106.4C456.378 106.4 458.565 107.173 460.218 108.72C461.925 110.267 462.778 112.213 462.778 114.56C462.778 116.853 461.925 118.773 460.218 120.32C458.565 121.867 456.378 122.64 453.658 122.64Z" fill="url(#paint6_linear_1103_974)"/>
<path d="M59.9737 82.7314C59.9912 83.1521 60 83.575 60 84L60 120C60 125.523 64.4772 130 70 130C75.5229 130 80 125.523 80 120V90C80 84.4771 84.4771 80 90 80C95.5229 80 100 84.4771 100 90V120C100 136.569 86.5685 150 70 150C53.4315 150 40 136.569 40 120V84C40 78.4771 35.5228 74 30 74C24.4772 74 20 78.4771 20 84V114C20 119.523 15.5228 124 10 124C4.47715 124 0 119.523 0 114V84C0 83.575 0.00883735 83.1521 0.0263383 82.7314C0.00888048 82.4898 0 82.2459 0 82C0 81.0725 0.126253 80.1746 0.36251 79.3224C2.60873 64.9755 15.0226 54 30 54C44.9774 54 57.3913 64.9755 59.6375 79.3224C59.8738 80.1746 60 81.0725 60 82C60 82.2459 59.9911 82.4898 59.9737 82.7314Z" fill="#1F6F78"/>
<path d="M29 78C29 77.4477 29.4477 77 30 77C30.5523 77 31 77.4477 31 78V111C31 111.552 30.5523 112 30 112C29.4477 112 29 111.552 29 111V78Z" fill="#1F6F78"/>
<path d="M25 82C24.4477 82 24 82.4477 24 83V116C24 116.552 24.4477 117 25 117C25.5523 117 26 116.552 26 116V83C26 82.4477 25.5523 82 25 82Z" fill="#1F6F78"/>
<path d="M34 83C34 82.4477 34.4477 82 35 82C35.5523 82 36 82.4477 36 83V116C36 116.552 35.5523 117 35 117C34.4477 117 34 116.552 34 116V83Z" fill="#1F6F78"/>
<path d="M70 92C69.4477 92 69 92.4477 69 93V126C69 126.552 69.4477 127 70 127C70.5523 127 71 126.552 71 126V93C71 92.4477 70.5523 92 70 92Z" fill="#1F6F78"/>
<path d="M64 89C64 88.4477 64.4477 88 65 88C65.5523 88 66 88.4477 66 89V122C66 122.552 65.5523 123 65 123C64.4477 123 64 122.552 64 122V89Z" fill="#1F6F78"/>
<path d="M75 88C74.4477 88 74 88.4477 74 89V122C74 122.552 74.4477 123 75 123C75.5523 123 76 122.552 76 122V89C76 88.4477 75.5523 88 75 88Z" fill="#1F6F78"/>
<path d="M83.3426 77C79.3491 77 76.9672 72.5493 79.1823 69.2265L89.8398 53.2404C91.8189 50.2717 96.1811 50.2717 98.1602 53.2404L108.818 69.2265C111.033 72.5493 108.651 77 104.657 77H83.3426Z" fill="#118A7E"/>
<path d="M76.4607 77C72.4436 77 70.0666 72.5023 72.3296 69.1833L77.8689 61.059C79.8537 58.1479 84.1463 58.1479 86.1311 61.059L91.6704 69.1833C93.9334 72.5023 91.5564 77 87.5393 77H76.4607Z" fill="#1F6F78"/>
<defs>
<linearGradient id="paint0_linear_1103_974" x1="161.972" y1="100.507" x2="462.778" y2="100.507" gradientUnits="userSpaceOnUse">
<stop stop-color="#1F6F78"/>
<stop offset="1" stop-color="#118A7E"/>
</linearGradient>
<linearGradient id="paint1_linear_1103_974" x1="161.972" y1="100.507" x2="462.778" y2="100.507" gradientUnits="userSpaceOnUse">
<stop stop-color="#1F6F78"/>
<stop offset="1" stop-color="#118A7E"/>
</linearGradient>
<linearGradient id="paint2_linear_1103_974" x1="161.972" y1="100.507" x2="462.778" y2="100.507" gradientUnits="userSpaceOnUse">
<stop stop-color="#1F6F78"/>
<stop offset="1" stop-color="#118A7E"/>
</linearGradient>
<linearGradient id="paint3_linear_1103_974" x1="161.972" y1="100.507" x2="462.778" y2="100.507" gradientUnits="userSpaceOnUse">
<stop stop-color="#1F6F78"/>
<stop offset="1" stop-color="#118A7E"/>
</linearGradient>
<linearGradient id="paint4_linear_1103_974" x1="161.972" y1="100.507" x2="462.778" y2="100.507" gradientUnits="userSpaceOnUse">
<stop stop-color="#1F6F78"/>
<stop offset="1" stop-color="#118A7E"/>
</linearGradient>
<linearGradient id="paint5_linear_1103_974" x1="161.972" y1="100.507" x2="462.778" y2="100.507" gradientUnits="userSpaceOnUse">
<stop stop-color="#1F6F78"/>
<stop offset="1" stop-color="#118A7E"/>
</linearGradient>
<linearGradient id="paint6_linear_1103_974" x1="161.972" y1="100.507" x2="462.778" y2="100.507" gradientUnits="userSpaceOnUse">
<stop stop-color="#1F6F78"/>
<stop offset="1" stop-color="#118A7E"/>
</linearGradient>
</defs>
</svg>
